<svg xmlns="http://www.w3.org/2000/svg" xmlns:xlink="http://www.w3.org/1999/xlink" width="1em" height="1em" preserveAspectRatio="xMidYMid meet" viewBox="0 0 32 32" style="-ms-transform: rotate(360deg); -webkit-transform: rotate(360deg); transform: rotate(360deg);"><path fill="currentColor" d="M24 3H8a2 2 0 0 0-2 2v22a2 2 0 0 0 2 2h16a2 2 0 0 0 2-2V5a2 2 0 0 0-2-2Zm0 2v6H8V5ZM8 19v-6h16v6Zm0 8v-6h16v6Z"/><circle cx="11" cy="8" r="1" fill="currentColor"/><circle cx="11" cy="16" r="1" fill="currentColor"/><circle cx="11" cy="24" r="1" fill="currentColor"/></svg>