<svg xmlns="http://www.w3.org/2000/svg" viewBox="0 0 212.599 28.346"><path fill="#eb8c00" d="M0 5.154l1.637 22.912H8l4.733-11.4-.019 11.4h6.363L29.918 5.154h-6.719l-5.544 13.647-.175-13.647h-5.201L6.7 18.801 6.479 5.154H0zM53.904 6.18H47.96l-.871 4.171h5.943l.872-4.171zM43.406 28.066h5.943l3.266-16.108h-5.944l-3.265 16.108z"/><path d="M31.926 18.233c.45-1.649 1.501-2.61 3.092-2.61 1.5 0 2.251.932 2.251 2.102 0 .15-.029.359-.061.509h-5.282v-.001zm4.263 5.015c-.301.54-1.051 1.111-2.342 1.111-1.86 0-2.432-1.381-2.432-3.034h11.107c.27-.958.3-1.86.3-2.7 0-4.893-4.167-7.005-7.617-7.005-3.874 0-9.343 2.533-9.343 9.678 0 3.781 2.076 7.003 7.6 7.003 6.723 0 8.039-4.002 8.43-5.053h-5.703zM64.404 18.842c0 1.86-.78 4.831-3.09 4.831-1.562 0-2.191-1.141-2.191-2.551 0-2.251.779-5.162 3.151-5.162 1.531 0 2.13 1.139 2.13 2.882zm2.921-13.688l-.096.385-1.733 8.499c-1.047-1.687-2.728-2.227-4.529-2.227-4.652 0-7.744 4.113-7.744 10.024 0 1.892.675 6.465 5.689 6.465 1.8 0 3.137-.821 4.156-2.29l-.299 2.056h5.823l4.696-22.912h-5.963z" fill-rule="evenodd" clip-rule="evenodd" fill="#eb8c00"/><path d="M71.795 28.066h5.942l1.922-9.205c.269-1.351 1.019-2.312 2.49-2.312.961 0 1.501.452 1.501 1.443 0 .419-.15 1.047-.239 1.438l-1.801 8.637h5.943l2.04-9.714c.24-1.143 1.081-1.804 2.252-1.804.96 0 1.529.511 1.529 1.502 0 .45-.298 1.979-.359 2.283l-1.592 7.732h5.944l1.891-9.174c.121-.692.362-1.741.362-2.463 0-3.213-1.901-4.81-4.932-4.81-2.07 0-3.864 1.148-5.153 2.768-.39-1.92-2.11-2.768-4.15-2.768-1.981 0-3.744 1.148-4.945 2.619h-.061l.442-2.281h-5.765l-3.261 16.109zM119.633 11.958h-5.942l-1.382 6.576c-.479 1.982-.598 4.894-3.271 4.894-.869 0-1.71-.512-1.71-1.471 0 0 0-.81.242-1.619l1.769-8.38h-5.945c-1.8 8.583-2.339 10.72-2.339 12.071 0 2.969 2.111 4.271 4.813 4.271 2.011 0 3.862-.971 5.153-2.502h.059l-.479 2.268h5.765l3.267-16.108zM105.595 10.257h5.283l.839-3.994h-5.282l-.84 3.994zM112.938 10.257h5.281l.843-3.994h-5.285l-.839 3.994zM124.203 5.099h5.991l-4.738 22.967h-5.942l4.689-22.967zM133.474 5.099h5.993l-4.669 22.967h-5.942l4.618-22.967z" fill="#eb8c00"/><path d="M144.775 18.274c.451-1.651 1.502-2.612 3.094-2.612 1.502 0 2.252.932 2.252 2.102 0 .15-.031.361-.061.511h-5.285v-.001zm4.265 5.013c-.303.538-1.051 1.111-2.343 1.111-1.86 0-2.43-1.381-2.43-3.034h11.106c.27-.958.299-1.86.299-2.698 0-4.893-4.174-6.99-7.624-6.99-3.875 0-9.337 2.517-9.337 9.659 0 3.783 2.088 7.011 7.609 7.011 6.723 0 8.029-4.006 8.419-5.059h-5.699z" fill-rule="evenodd" clip-rule="evenodd" fill="#eb8c00"/><path d="M156.241 28.066h5.944l1.354-6.765c.688-3.272 1.95-4.351 4.47-4.351.751 0 1.563.117 2.281.389l1.112-5.549c-.542-.182-1.112-.242-2.105-.242-1.529 0-3.481 1.169-4.528 2.822l-.061.298.509-2.729h-5.765l-3.211 16.127z" fill="#eb8c00"/><path d="M183.552 4.597h7.392c.774 0 1.145.301 1.732 1.017.214.261.697.849 1.284 1.57l2.912-3.568a1379.536 1379.536 0 0 1-1.737-2.135C194.404.593 193.62 0 192.166 0h-8.614c-1.189 0-2.418.777-2.418 2.309 0 1.539 1.213 2.288 2.418 2.288z"/><path d="M210.181 23.556h-7.39c-.774 0-1.145-.302-1.735-1.018-.213-.261-.692-.852-1.282-1.575l-2.915 3.568c1 1.229 1.736 2.14 1.736 2.14.732.89 1.517 1.482 2.973 1.482h8.613c1.19 0 2.418-.779 2.418-2.312 0-1.538-1.21-2.285-2.418-2.285zM195.404 15.598c-.509-.58-.748-1.062-.748-1.522 0-.446.253-.959.748-1.523.047-.06 4.823-5.927 5.652-6.938.59-.716.961-1.017 1.735-1.017h7.39c1.208 0 2.418-.749 2.418-2.287 0-1.532-1.227-2.309-2.418-2.309h-8.613c-1.456 0-2.24.593-2.973 1.481 0 0-6.634 8.172-7.341 8.944-.905.994-1.364 1.341-2.957 1.341h-4.747c-1.188 0-2.416.782-2.416 2.325 0 1.544 1.211 2.296 2.416 2.296h4.747c1.593 0 2.052.349 2.957 1.34.271.295 1.402 1.672 2.7 3.255l2.918-3.578c-.829-1.017-1.451-1.787-1.468-1.808z" fill="#eb8c00"/><path d="M210.183 11.766h-4.747c-1.592 0-2.052-.347-2.96-1.341-.268-.294-1.4-1.666-2.696-3.249l-2.917 3.575 1.465 1.801c.499.564.747 1.077.747 1.523 0 .46-.234.942-.747 1.522-.047.061-4.821 5.929-5.651 6.94-.588.717-.958 1.018-1.732 1.018h-7.392c-1.205 0-2.418.747-2.418 2.284 0 1.533 1.229 2.312 2.418 2.312h8.614c1.453 0 2.237-.593 2.969-1.482 0 0 6.636-8.171 7.341-8.943.908-.991 1.368-1.34 2.96-1.34h4.747c1.206 0 2.416-.752 2.416-2.296-.001-1.542-1.228-2.324-2.417-2.324z"/></svg>